<?xml version="1.0" standalone="no"?>
<!DOCTYPE svg PUBLIC "-//W3C//DTD SVG 20010904//EN"
 "http://www.w3.org/TR/2001/REC-SVG-20010904/DTD/svg10.dtd">
<svg version="1.0" xmlns="http://www.w3.org/2000/svg"
 width="1280.000000pt" height="853.000000pt" viewBox="0 0 1280.000000 853.000000"
 preserveAspectRatio="xMidYMid meet">
<metadata>
Created by potrace 1.15, written by Peter Selinger 2001-2017
</metadata>
<g transform="translate(0.000000,853.000000) scale(0.100000,-0.100000)"
fill="#000000" stroke="none">
<path d="M9480 7618 c-784 -88 -1426 -161 -1427 -162 -1 -1 40 -110 91 -241
51 -132 96 -249 100 -261 6 -19 -1 -24 -56 -44 -86 -31 -270 -119 -381 -181
-184 -105 -380 -245 -637 -455 -319 -261 -586 -384 -939 -434 -39 -5 -180 -17
-313 -25 -498 -32 -821 -100 -1218 -257 -357 -140 -673 -333 -1035 -631 -229
-188 -438 -313 -620 -370 -164 -52 -297 -71 -595 -87 -318 -17 -529 -47 -785
-111 -98 -25 -352 -104 -363 -114 -1 -1 27 -76 62 -166 44 -112 69 -163 78
-160 7 2 54 16 104 32 140 42 317 68 579 84 384 24 621 60 864 130 443 128
768 306 1217 667 215 173 335 253 497 333 272 135 520 194 897 215 478 27 840
101 1190 242 336 136 595 295 964 590 114 92 247 193 294 224 91 61 272 152
311 156 23 3 30 -12 124 -254 65 -167 104 -255 111 -251 24 15 2302 1666 2316
1679 8 8 10 13 5 13 -6 -1 -651 -74 -1435 -161z"/>
<path d="M9587 6393 c-78 -29 -166 -103 -197 -164 -53 -103 -50 78 -50 -2651
l0 -2528 635 0 635 0 0 2535 c0 2523 0 2534 -20 2586 -45 113 -105 173 -223
221 l-69 28 -322 -1 c-320 0 -321 0 -389 -26z"/>
<path d="M8109 5915 c-115 -42 -201 -122 -237 -222 l-22 -60 0 -2292 0 -2291
635 0 635 0 0 2287 0 2288 -26 67 c-41 108 -113 177 -227 219 -47 17 -81 19
-387 18 -250 0 -344 -4 -371 -14z"/>
<path d="M6630 5441 c-8 -4 -41 -20 -73 -36 -73 -35 -148 -116 -179 -193 l-23
-57 -3 -2052 -2 -2053 640 0 640 0 -2 2053 -3 2052 -23 57 c-31 77 -106 158
-179 193 -32 16 -66 32 -75 37 -22 10 -698 10 -718 -1z"/>
<path d="M5090 4722 c-92 -36 -167 -113 -203 -207 l-27 -70 0 -1698 0 -1697
635 0 635 0 0 1701 0 1702 -22 60 c-30 82 -107 165 -190 203 l-63 29 -350 2
-350 2 -65 -27z"/>
<path d="M3608 3960 c-109 -44 -176 -113 -217 -220 -21 -55 -21 -62 -21 -1372
l0 -1318 635 0 635 0 0 1313 c0 1411 2 1334 -50 1436 -28 56 -119 134 -185
159 -55 21 -70 22 -403 21 -319 0 -351 -2 -394 -19z"/>
<path d="M2123 3280 c-95 -34 -163 -92 -207 -179 -47 -89 -46 -70 -46 -1088
l0 -963 640 0 640 0 0 963 c0 799 -3 970 -14 1008 -41 135 -118 217 -243 260
-51 17 -84 19 -387 18 -296 0 -337 -2 -383 -19z"/>
</g>
</svg>
