<?xml version="1.0" standalone="no"?>
<!DOCTYPE svg PUBLIC "-//W3C//DTD SVG 20010904//EN"
 "http://www.w3.org/TR/2001/REC-SVG-20010904/DTD/svg10.dtd">
<svg version="1.0" xmlns="http://www.w3.org/2000/svg"
 width="1280.000000pt" height="1141.000000pt" viewBox="0 0 1280.000000 1141.000000"
 preserveAspectRatio="xMidYMid meet">
<metadata>
Created by potrace 1.15, written by Peter Selinger 2001-2017
</metadata>
<g transform="translate(0.000000,1141.000000) scale(0.100000,-0.100000)"
fill="#000000" stroke="none">
<path d="M7180 11353 c-64 -24 -418 -187 -559 -258 -1361 -681 -2367 -1691
-2728 -2740 -142 -412 -179 -831 -107 -1210 158 -833 785 -1473 1798 -1840
577 -208 1334 -310 2059 -277 750 35 1402 157 2139 402 384 128 686 253 1055
436 l211 106 -23 71 c-13 40 -72 218 -130 397 -59 179 -111 337 -117 352 l-10
27 -177 -88 c-794 -398 -1676 -643 -2552 -711 -178 -13 -668 -14 -834 0 -1362
111 -2326 693 -2624 1585 -108 324 -119 707 -30 1060 178 705 680 1390 1449
1977 314 239 726 489 1080 653 69 32 127 60 129 62 6 5 -12 2 -29 -4z"/>
<path d="M6615 11253 c-339 -141 -792 -356 -1070 -508 -1436 -785 -2539 -1832
-3121 -2960 -313 -608 -461 -1203 -441 -1775 53 -1465 1154 -2599 2982 -3070
405 -104 854 -174 1350 -211 223 -17 891 -17 1120 -1 1227 88 2387 368 3521
851 320 136 864 404 864 425 0 6 -69 223 -154 481 -85 259 -167 510 -183 558
-16 49 -31 89 -33 89 -3 1 -124 -58 -270 -130 -890 -439 -1834 -734 -2805
-877 -619 -90 -1352 -109 -1920 -49 -1739 184 -2985 975 -3355 2129 -86 270
-114 452 -114 760 -1 240 6 312 50 538 193 983 920 1994 2042 2836 267 200
663 452 997 634 114 62 407 207 585 289 55 26 22 19 -45 -9z"/>
<path d="M6015 11099 c-655 -273 -1337 -614 -1865 -934 -1461 -884 -2610
-1967 -3332 -3140 -733 -1190 -979 -2398 -712 -3488 319 -1298 1314 -2325
2849 -2939 804 -322 1677 -506 2745 -580 243 -17 1074 -17 1330 0 1688 110
3269 502 4844 1199 215 96 897 430 917 450 5 5 -36 143 -90 308 -54 165 -163
496 -241 735 -78 239 -144 437 -146 439 -2 2 -144 -66 -316 -152 -362 -180
-580 -278 -943 -422 -1139 -452 -2302 -724 -3505 -821 -267 -21 -1025 -30
-1284 -15 -2121 124 -3732 889 -4502 2136 -90 146 -221 419 -279 579 -276 772
-242 1624 102 2496 450 1141 1402 2250 2714 3162 506 352 1151 719 1684 958
88 40 162 74 164 76 12 11 -25 -2 -134 -47z"/>
</g>
</svg>
